<?xml version="1.0" standalone="no"?>
<!DOCTYPE svg PUBLIC "-//W3C//DTD SVG 20010904//EN"
 "http://www.w3.org/TR/2001/REC-SVG-20010904/DTD/svg10.dtd">
<svg version="1.0" xmlns="http://www.w3.org/2000/svg"
 width="386.000000pt" height="386.000000pt" viewBox="0 0 386.000000 386.000000"
 preserveAspectRatio="xMidYMid meet">
<metadata>
Created by potrace 1.14, written by Peter Selinger 2001-2017
</metadata>
<g transform="translate(0.000000,386.000000) scale(0.100000,-0.100000)"
fill="#000000" stroke="none">
<path d="M2138 3403 c-24 -27 -35 -54 -42 -101 -8 -56 -31 -89 -75 -111 -41
-20 -50 -20 -111 -2 -40 12 -64 16 -122 20 -9 0 -38 27 -63 58 -59 73 -82 85
-124 67 -17 -7 -31 -19 -32 -26 0 -7 -2 -24 -5 -37 -5 -27 16 -64 59 -102 29
-25 29 -26 13 -57 -12 -24 -37 -41 -101 -72 -47 -22 -86 -39 -87 -38 -2 2 -17
-7 -35 -20 -17 -12 -34 -22 -37 -22 -4 0 -18 -11 -32 -25 -33 -34 -54 -23 -55
29 -2 105 -13 140 -49 149 -14 4 -26 -3 -39 -21 -26 -38 -30 -55 -36 -157 -8
-136 -25 -174 -111 -261 -41 -41 -79 -74 -84 -74 -6 0 -10 -4 -10 -10 0 -5 -9
-21 -21 -34 -11 -13 -31 -43 -43 -67 -13 -24 -46 -87 -74 -139 -58 -109 -110
-260 -117 -338 -5 -66 -8 -70 -47 -67 -45 2 -69 13 -96 43 -12 14 -22 21 -22
16 0 -4 -7 1 -15 13 -36 52 -103 44 -110 -13 -7 -63 36 -111 159 -178 101 -55
126 -80 150 -146 17 -46 17 -53 4 -67 -14 -13 -23 -11 -81 21 -36 20 -72 36
-80 36 -9 0 -17 4 -19 10 -1 5 -12 11 -23 13 -11 1 -24 5 -30 8 -17 9 -53 2
-80 -15 -20 -13 -24 -22 -19 -39 10 -34 33 -55 68 -63 17 -3 42 -11 56 -17 14
-5 40 -11 58 -13 77 -8 118 -56 158 -184 9 -29 26 -55 48 -73 45 -35 238 -132
294 -147 23 -6 63 -22 89 -35 26 -13 55 -22 65 -20 10 2 18 0 18 -6 0 -5 6 -9
13 -9 27 0 37 -19 43 -79 9 -101 48 -150 119 -147 54 3 72 12 81 44 12 43 12
45 -13 91 -43 81 -25 108 65 97 31 -4 98 -10 147 -12 103 -6 110 -7 149 -23
42 -17 141 -121 165 -174 31 -68 94 -127 136 -127 28 0 35 5 49 35 15 30 15
38 3 67 -8 18 -29 48 -46 66 -25 26 -31 40 -29 65 3 36 -2 35 153 22 83 -7
135 -7 170 0 11 2 25 4 31 4 6 1 33 21 60 47 35 32 55 43 69 40 11 -3 23 -6
27 -6 11 0 28 -63 29 -110 2 -72 17 -118 46 -137 25 -17 26 -16 48 12 31 37
33 55 28 191 -4 117 5 172 34 206 13 15 17 15 42 1 16 -10 37 -14 52 -10 80
20 216 235 208 329 -2 18 -7 39 -12 46 -11 14 -61 17 -52 3 3 -5 1 -12 -5 -16
-5 -3 -14 -23 -20 -43 -20 -75 -110 -143 -97 -74 5 29 29 94 37 102 3 3 5 10
6 15 2 23 28 101 39 115 6 8 17 27 25 43 7 15 17 27 22 27 4 0 8 6 8 13 0 6 6
24 14 39 16 31 62 227 71 303 12 104 17 123 67 222 42 85 51 112 51 158 1 65
-17 91 -55 82 -19 -5 -29 -20 -44 -62 -32 -96 -79 -124 -105 -63 -24 59 -12
110 44 196 40 59 44 69 34 91 -23 52 -55 58 -100 17 -49 -44 -100 -63 -137
-51 -10 3 -30 25 -46 48 -15 23 -37 52 -48 63 -12 12 -28 31 -36 44 -8 12 -22
32 -31 44 -10 14 -14 38 -13 71 6 103 5 127 -7 141 -6 8 -8 14 -3 14 5 0 -2 6
-16 13 -14 7 -36 11 -48 9 -32 -6 -62 -58 -62 -105 0 -30 -5 -39 -22 -46 -13
-5 -27 -6 -33 -3 -5 4 -15 7 -22 8 -14 2 -95 57 -117 79 -40 40 -77 47 -157
31 -21 -5 -28 -2 -32 15 -3 11 -3 30 -1 42 10 43 11 132 2 164 -14 50 -61 69
-90 36z"/>
</g>
</svg>
